<svg width="100" height="100" viewBox="0 0 100 100" fill="none" xmlns="http://www.w3.org/2000/svg">
<path fill-rule="evenodd" clip-rule="evenodd" d="M9 0C4.02944 0 0 4.02943 0 9V91C0 95.9706 4.02943 100 9 100H91C95.9706 100 100 95.9706 100 91V9C100 4.02944 95.9706 0 91 0H9ZM13 49.5793C13 28.8262 29.5667 12 50 12C70.4333 12 87 28.8262 87 49.5793C87 65.9765 76.6431 79.8808 62.2254 85.0135C62.2374 84.9233 62.2529 84.8376 62.2685 84.7519C62.3009 84.5732 62.3333 84.3945 62.3333 84.1743V75.6124C62.3333 71.8138 59.8636 66.7719 56.4781 64.9775C68.7806 63.6841 74.6513 57.4616 74.6513 49.0157C74.6513 45.383 73.1342 41.8725 70.5566 38.9131C71.4168 35.9756 72.4991 29.9473 70.2421 27.6581C64.6859 27.6581 61.3312 31.322 60.5357 32.3022C57.7669 31.3346 54.7206 30.7897 51.5262 30.7897C48.3381 30.7897 45.3041 31.3346 42.5414 32.296C41.7367 31.3095 38.3851 27.6581 32.8413 27.6581C30.5935 29.9441 31.6634 35.9474 32.5144 38.8912C29.9213 41.8568 28.3951 45.3767 28.3951 49.0157C28.3951 57.4679 34.275 63.6935 46.596 64.9806C44.4592 66.1143 42.711 68.5162 41.6997 71.1248C39.8188 71.4255 37.8208 71.5038 36.4857 71.5038C33.7323 71.5038 33.0386 71.0591 31.5647 69.0956C30.0847 67.1352 28.5122 65.8136 26.616 65.2687C25.5892 65.1591 24.9109 65.9702 25.802 66.6811C27.8952 68.1697 28.6313 70.3171 29.2955 72.2548C29.5843 73.0971 29.8594 73.8998 30.2266 74.5915C31.3181 76.6459 33.5689 77.7513 36.1003 77.7513H40.75V84.1743C40.75 84.9039 40.861 85.4927 41.0337 86C24.9387 81.9226 13 67.1884 13 49.5793Z" fill="black"/>
</svg>
